inDegrees=no
num_controls=7
num_derivatives=13
num_iterations=198
num_multipliers=7
num_parameters=0
num_slacks=7
num_states=26
objective=6.071006
objective_accelerations=0.645377
objective_balance=0.029483
objective_effort=0.620337
objective_height=4.681381
objective_ligament=0.094428
solver_duration=2175.558582
status=Solve_Succeeded
success=true
DataType=double
version=3
OpenSimVersion=4.4-2022-07-23-0e9fedc
endheader
time	/jointset/ground_pelvis/pelvis_tilt/value	/jointset/ground_pelvis/pelvis_tx/value	/jointset/ground_pelvis/pelvis_ty/value	/jointset/hip_l/hip_flexion_l/value	/jointset/hip_l/hip_adduction_l/value	/jointset/hip_l/hip_rotation_l/value	/jointset/back/lumbar_extension/value	/jointset/patellofemoral_l/patellar_flexion_l/value	/jointset/knee_l/knee_flexion_l/value	/jointset/knee_l/knee_adduction_l/value	/jointset/knee_l/knee_rotation_l/value	/jointset/ankle_l/ankle_angle_l/value	/jointset/subtalar_l/subtalar_angle_l/value	/jointset/ground_pelvis/pelvis_tilt/speed	/jointset/ground_pelvis/pelvis_tx/speed	/jointset/ground_pelvis/pelvis_ty/speed	/jointset/hip_l/hip_flexion_l/speed	/jointset/hip_l/hip_adduction_l/speed	/jointset/hip_l/hip_rotation_l/speed	/jointset/back/lumbar_extension/speed	/jointset/patellofemoral_l/patellar_flexion_l/speed	/jointset/knee_l/knee_flexion_l/speed	/jointset/knee_l/knee_adduction_l/speed	/jointset/knee_l/knee_rotation_l/speed	/jointset/ankle_l/ankle_angle_l/speed	/jointset/subtalar_l/subtalar_angle_l/speed	/forceset/tau_hip_flexion_l	/forceset/tau_hip_adduction_l	/forceset/tau_hip_rotation_l	/forceset/tau_knee_flexion_l	/forceset/tau_ankle_angle_l	/forceset/tau_subtalar_angle_l	/forceset/tau_lumbar_extension	lambda_cid13_p0	lambda_cid13_p1	lambda_cid13_p2	lambda_cid13_p3	lambda_cid13_p4	lambda_cid13_p5	lambda_cid14_p0	/jointset/ground_pelvis/pelvis_tilt/accel	/jointset/ground_pelvis/pelvis_tx/accel	/jointset/ground_pelvis/pelvis_ty/accel	/jointset/hip_l/hip_flexion_l/accel	/jointset/hip_l/hip_adduction_l/accel	/jointset/hip_l/hip_rotation_l/accel	/jointset/back/lumbar_extension/accel	/jointset/patellofemoral_l/patellar_flexion_l/accel	/jointset/knee_l/knee_flexion_l/accel	/jointset/knee_l/knee_adduction_l/accel	/jointset/knee_l/knee_rotation_l/accel	/jointset/ankle_l/ankle_angle_l/accel	/jointset/subtalar_l/subtalar_angle_l/accel	gamma_cid13_p0	gamma_cid13_p1	gamma_cid13_p2	gamma_cid13_p3	gamma_cid13_p4	gamma_cid13_p5	gamma_cid14_p0
0.5	-0.1931515151897946	-0.09397427419813324	0.7805359006348862	1.108732717812042	-0.3265963120072686	-0.08536881166738286	-0.8074516982033361	0.9011040814230361	0.9011040814229995	-0.1008922108406303	-0.1745323614668319	0.04467910974571384	-0.01943294892222206	-0.3869419541669548	-0.2585298703557581	-0.5022873201046454	2.059092175119606	-0.02273529595325707	0.5473878823931607	-0.8241104504069906	1.728990898831946	1.72899089883189	0.1567209633009297	8.119397851346299e-06	0.1650353408975955	0.02307145366348966	-0.3401351978745387	0.007460787522307011	-0.004091999904169369	-0.2197152947085642	0.1573024903771584	0.05430531600416006	0.3672032457678028	5.883393282798771	-25.1318508191919	4.142835499040309	-16.34203493082789	-704.8191227492944	-75.89150018810751	-10.56389634299241	0.5205646432643847	0.923738113325387	-0.1794205874115812	-1.832111243046179	0.3530594448578999	-0.4635524079121116	2.183606560494624	-1.356773918636686	-1.356773918636759	-0.2181993002942771	0.002167484134649506	-0.09627525756607903	0.3474533850651673	-2.602777129665546e-07	-1.692900653289162e-07	1.405284529999132e-06	1.439881809407491e-07	-2.796937190861539e-07	3.11681876922207e-07	-2.285922215694419e-07
0.51	-0.1969941986890795	-0.09651331959514232	0.7755051617479928	1.129228922662611	-0.3268069981694697	-0.07991738714059993	-0.8155830559396856	0.9183234871361029	0.9183234871360947	-0.09933864047999004	-0.1745322482765879	0.04632382868708798	-0.01918616789353566	-0.3815391371983155	-0.2492758327354308	-0.5037482018178275	2.039875412054678	-0.01940961217421271	0.5428314373096419	-0.8020887018843971	1.714641679798992	1.714641679798993	0.1539842682419806	9.839520242953912e-06	0.163859807162598	0.02626334279192857	-0.3484969547938536	0.007158303820803433	-0.004288785679003452	-0.222699209418584	0.1588979609610675	0.05451091327147672	0.3747203309366582	6.06268460019875	-25.17662052395897	4.063260653742759	-16.44095057199682	-710.3160881069376	-75.6870219723468	-9.86759787700988	0.5584536075503895	0.926771939513497	-0.1126373022574337	-2.007501988132038	0.3210110900791355	-0.4617326317405608	2.222318244915375	-1.511235687000185	-1.511235686991721	-0.3027348053753058	-0.00123911326174039	-0.1354836285289972	0.3017046395103583	-2.476515227219798e-07	-1.238342685145537e-07	1.386413223570444e-06	1.436233878332721e-07	-2.574567236088113e-07	3.314614221023536e-07	-2.188066266669313e-07
0.52	-0.2007811913419006	-0.09895971754532272	0.7704631709761705	1.149524751252549	-0.3269846898447498	-0.07451353547928354	-0.8234920243414544	0.9353919527005653	0.9353919527005846	-0.09781270310927884	-0.1745322005630265	0.04795533405169996	-0.01890813838100944	-0.3758037848742096	-0.2400003809900206	-0.5045376970904488	2.019016922993111	-0.0161363985691132	0.5378733092993716	-0.7796325834908565	1.698802869111018	1.698802869111074	0.1511943653158293	-4.975939491716909e-06	0.1623926255451041	0.02932115043145199	-0.3568587117131634	0.006855820119306457	-0.004485571453863567	-0.2256831241286023	0.1604934315449782	0.05471651053880127	0.3822374161055168	6.237489997468029	-25.22160956328182	3.984869572285347	-16.57109408854365	-715.9096986967055	-75.53875193771363	-9.171776190780189	0.5870717143577149	0.928020938341983	-0.04514329929938157	-2.160456442374164	0.3425654100689212	-0.5438889932624588	2.270480534684084	-1.654692249640945	-1.654692249640924	-0.2288408737347206	-0.001139632290618676	-0.1546048340653532	0.3206370872820669	-2.338684297242357e-07	-8.355446970786143e-08	1.357191227225254e-06	1.417863159987081e-07	-2.355749694130387e-07	3.476405270058356e-07	-2.082534224626066e-07
0.53	-0.2045092588471553	-0.1013133392881565	0.7654166385079959	1.169604047118209	-0.3271298097297402	-0.0691611557705568	-0.8311743802220638	0.9522947850281648	0.9522947850282439	-0.09631473448434424	-0.1745322357663787	0.04957081722579731	-0.01860006270548752	-0.3697588906464706	-0.2307283151711163	-0.5046560417059304	1.996582506979492	-0.01289525914193737	0.5325404618062805	-0.7567825408127762	1.6815286622488	1.681528662248798	0.1483967459262924	-1.846213711430724e-06	0.1606621788779664	0.03227462974768744	-0.3649229940859525	0.006450716061601616	-0.004636495167865858	-0.2286286609077318	0.1619248274983403	0.05476875616398995	0.3894110869577527	6.365517139903122	-25.19053633609043	3.892899082352238	-16.57356754968258	-721.2818738537633	-75.28197811648634	-8.478321435849274	0.6207966533178156	0.9261754287873548	0.02168836680090064	-2.323927993889989	0.3135713116677231	-0.5374902167346383	2.300673907103659	-1.798984486471194	-1.798984486480013	-0.3056091537078635	0.001347635563913445	-0.1885302493139699	0.2796531256002546	-2.225084382049633e-07	-7.875823749939221e-08	1.304990669039379e-06	1.349011379951279e-07	-2.18864706288341e-07	3.631418902661814e-07	-2.01308078094829e-07
0.54	-0.2081753577348655	-0.1035743651677767	0.7603722962755614	1.189451200061128	-0.3272427815999334	-0.06386400605463904	-0.8386265541213457	0.9690178353707511	0.9690178353708876	-0.09484481938973856	-0.1745321780003587	0.05116774279996837	-0.01826306228244204	-0.3634100613652994	-0.2214812083473049	-0.5040996499424776	1.972588338444502	-0.009706795609731131	0.5268273107371022	-0.7335961872253498	1.662846472108221	1.66284647210816	0.1455836592509691	1.361793413140564e-05	0.1586811055597892	0.03510609993616199	-0.3729872764587374	0.006045612003903009	-0.00478741888190434	-0.2315741976868601	0.1633562234517038	0.05482100178918627	0.3965847578099913	6.488369358768405	-25.15953761931646	3.802061634487711	-16.60523639554624	-726.7594860064621	-75.07902851511504	-7.789606219365295	0.6478587250441369	0.923029139323407	0.08980397648750225	-2.472406946648485	0.3320302310749959	-0.619949708479877	2.337742716553294	-1.936288905313391	-1.936288905313358	-0.2319343308919991	0.00132725212188778	-0.2047301642732589	0.2962352617298848	-2.138293249171913e-07	-1.132204193995958e-07	1.227367021157427e-06	1.224308212513594e-07	-2.078760928593007e-07	3.778934117085893e-07	-1.983544084398271e-07
0.55	-0.2117765361994057	-0.1057431195872117	0.7553368885625651	1.209050793223927	-0.3273241473637439	-0.05862615124683557	-0.8458453457363291	0.985547162021885	0.9855471620218046	-0.09340286766647661	-0.1745321257160452	0.05274366192498199	-0.0178983548848609	-0.3567805903684336	-0.2122805950045313	-0.5028694440497898	1.947083187063286	-0.006576382133967474	0.5206782341080644	-0.7101241370742064	1.642796415546379	1.642796415546396	0.1428109035358257	-4.176927698216309e-06	0.1564675725402329	0.03781557634311239	-0.3806454164717035	0.005508335181350036	-0.004898452468986514	-0.2345481369363554	0.1647191510218714	0.05471606630410039	0.4033262886535205	6.598550560061634	-25.05831819642048	3.700326952060767	-16.53538099073541	-731.9559085586019	-74.78061266834041	-7.125043347763154	0.6772240625688215	0.9169626377942512	0.1564558102475206	-2.626664711657904	0.3019078293330182	-0.6223729845754764	2.357635968957829	-2.072691068781194	-2.072691068769565	-0.2993300549639785	-0.003237414035104275	-0.2349324258210979	0.2552158586281427	-2.023568690448019e-07	-1.140891253542213e-07	1.167420547932172e-06	1.147696557253396e-07	-1.93001339974722e-07	3.873905915359794e-07	-1.910547314536208e-07
0.5600000000000001	-0.215310073398865	-0.1078201908320109	0.7503171482914133	1.228387915777355	-0.3273745368080955	-0.05345178447421436	-0.8528282768888884	1.001869322699968	1.001869322699671	-0.09198852027299342	-0.1745322322920878	0.05429639220879521	-0.01750717031752015	-0.3498818083491267	-0.2031445734201614	-0.5009661615735799	1.920094216570077	-0.003511531717965268	0.514129703700637	-0.686424094740544	1.621413277498071	1.621413277498165	0.1400627932951437	-1.815413751615645e-05	0.1540433373197053	0.04040153388808385	-0.3883035564846681	0.004971058358797738	-0.005009486056065188	-0.237522076185851	0.1660820785920389	0.05461113081901516	0.4100678194970511	6.704000619861443	-24.95996244337708	3.603266964855069	-16.50220592355715	-737.2480671113498	-74.53770282279513	-6.493683928713634	0.7017209295323696	0.9101107876426365	0.2244192931919522	-2.76917076904714	0.3189176191227072	-0.69984046415778	2.383341153057133	-2.202905202606693	-2.20290520260676	-0.2270052359997218	0.002090782524226233	-0.2468706044675004	0.2715314893340982	-1.875324020708717e-07	-7.46456601741544e-08	1.128686684294951e-06	1.128794716606181e-07	-1.734632197434973e-07	3.905825614253484e-07	-1.785398456699692e-07
0.5700000000000001	-0.2187733574092552	-0.1098062918096861	0.7453197894731008	1.247447928644009	-0.327394547062315	-0.04834481888004542	-0.8595731728200834	1.017971147847842	1.01797114784773	-0.09060141878099977	-0.174532360843063	0.05582391837525255	-0.01709065649339018	-0.3427338556660298	-0.1940925413663759	-0.4983940596823583	1.891670246577791	-0.0005065970358327333	0.5072003600345202	-0.6625320669750193	1.598740310919023	1.598740310919049	0.1373560907252069	-1.091569965745886e-05	0.1514319745672942	0.04287642177520334	-0.3956129850474797	0.004343335202892957	-0.005080540791867878	-0.2404214678206436	0.1672294762530645	0.05437213175260386	0.4164163996425206	6.750480448079768	-24.79451817963832	3.4971786432692	-16.33251364534303	-742.2505893992976	-74.19971603739323	-5.896027208251882	0.727482779752804	0.9002338885767958	0.2903045158017832	-2.914752174105182	0.2887332612209244	-0.6990885098914769	2.395587266812181	-2.331174267080809	-2.331174267091113	-0.2927205233504123	-0.0002330924624340288	-0.2727490635514808	0.2316247727806932	-1.723100833314992e-07	-3.682466464371971e-08	1.086269877122142e-06	1.105360990833077e-07	-1.541818928242519e-07	3.899292305636664e-07	-1.655575304717662e-07
